<svg xmlns="http://www.w3.org/2000/svg" width="1355" height="1355" viewBox="0 0 1355 1355" version="1.1"><path d="M 627.500 1.110 C 613.646 2.268, 589.610 4.896, 583 5.976 C 579.975 6.471, 574.125 7.380, 570 7.998 C 562.022 9.193, 558.611 9.807, 542 13.041 C 516.014 18.101, 487.828 25.676, 459.500 35.211 C 447.460 39.263, 419.135 50.091, 410.901 53.789 C 408.480 54.876, 403.125 57.223, 399 59.005 C 388.591 63.502, 357.733 79.105, 345.046 86.286 C 310.971 105.574, 282.150 125.177, 251.500 149.914 C 196.910 193.973, 148.493 247.440, 110.155 306 C 101.280 319.557, 86 344.535, 86 345.487 C 86 345.721, 84.593 348.294, 82.874 351.206 C 79.274 357.303, 66.677 382.194, 61.975 392.500 C 54.640 408.580, 50.142 418.989, 47.070 427 C 45.277 431.675, 43.427 436.400, 42.960 437.500 C 41.022 442.066, 33.029 465.209, 30.182 474.500 C 14.136 526.860, 6.649 566.124, 1.006 627.500 C -0.305 641.752, -0.305 713.248, 1.006 727.500 C 6.649 788.876, 14.136 828.140, 30.182 880.500 C 33.029 889.791, 41.022 912.934, 42.960 917.500 C 43.427 918.600, 45.277 923.325, 47.070 928 C 50.142 936.011, 54.640 946.420, 61.975 962.500 C 66.677 972.806, 79.274 997.697, 82.874 1003.794 C 84.593 1006.706, 86 1009.279, 86 1009.513 C 86 1010.465, 101.280 1035.443, 110.155 1049 C 139.498 1093.821, 172.339 1132.879, 213.584 1172.011 C 240.936 1197.961, 274.385 1224.325, 306.500 1245.246 C 335.566 1264.181, 373.378 1284.926, 399 1295.995 C 403.125 1297.777, 408.480 1300.124, 410.901 1301.211 C 419.135 1304.909, 447.460 1315.737, 459.500 1319.789 C 487.828 1329.324, 516.014 1336.899, 542 1341.959 C 558.548 1345.181, 562.008 1345.805, 570 1347.009 C 574.125 1347.631, 580.200 1348.559, 583.500 1349.072 C 635.388 1357.143, 721.217 1357.111, 771.750 1349.003 C 775.188 1348.451, 781.038 1347.532, 784.750 1346.961 C 842.453 1338.079, 898.283 1321.365, 957.500 1295.244 C 967.640 1290.771, 1003.241 1272.509, 1013.649 1266.442 C 1052.545 1243.767, 1091.227 1216.417, 1119.640 1191.500 C 1134.440 1178.521, 1141.188 1172.130, 1158.704 1154.500 C 1188.151 1124.862, 1204.275 1105.782, 1231.380 1068.500 C 1260.312 1028.707, 1293.253 967.078, 1310.487 920.500 C 1312.522 915, 1315.685 906.450, 1317.515 901.500 C 1320.455 893.551, 1326.741 873.918, 1329.042 865.500 C 1330.078 861.709, 1333.712 848.151, 1334.402 845.500 C 1344.531 806.601, 1353.604 747.550, 1354.173 716.830 C 1354.345 707.536, 1354.348 707.525, 1355 714 C 1355.360 717.575, 1355.651 700.700, 1355.647 676.500 C 1355.643 652.300, 1355.352 635.875, 1355 640 L 1354.360 647.500 1354.180 638.170 C 1353.584 607.320, 1344.523 548.368, 1334.402 509.500 C 1333.712 506.849, 1330.078 493.291, 1329.042 489.500 C 1326.713 480.979, 1320.437 461.401, 1317.422 453.250 C 1315.540 448.162, 1312.377 439.612, 1310.394 434.250 C 1293.271 387.960, 1260.241 326.196, 1231.380 286.500 C 1204.275 249.218, 1188.151 230.138, 1158.704 200.500 C 1141.188 182.870, 1134.440 176.479, 1119.640 163.500 C 1091.227 138.583, 1052.545 111.233, 1013.649 88.558 C 1003.241 82.491, 967.640 64.229, 957.500 59.756 C 898.283 33.635, 842.453 16.921, 784.750 8.039 C 781.038 7.468, 775.188 6.549, 771.750 5.997 C 762.238 4.471, 750.313 3.173, 730.539 1.510 C 710.897 -0.141, 645.516 -0.395, 627.500 1.110 M 733.500 211.111 C 646.894 219.197, 563.434 251.647, 494.175 304.163 C 478.711 315.888, 463.117 329.210, 463.053 330.750 C 463.012 331.710, 467.656 332, 483.086 332 L 503.173 332 512.915 324.661 C 644.029 225.895, 821.751 208.718, 969.500 280.532 C 1125.626 356.417, 1223.354 516.434, 1218.660 688.500 C 1217.379 735.478, 1210.595 774.311, 1196.039 818 C 1165.179 910.620, 1103.404 991.212, 1021.489 1045.718 C 930.091 1106.534, 820.072 1130.841, 710.500 1114.427 C 640.096 1103.881, 570.546 1074.554, 512.343 1030.872 L 503.187 1024 483.093 1024 C 467.660 1024, 463.011 1024.290, 463.047 1025.250 C 463.150 1027.979, 494.356 1052.791, 515.500 1066.955 C 577.148 1108.252, 642.447 1132.814, 718.386 1143.269 C 732.965 1145.276, 738.597 1145.488, 777.500 1145.488 C 816.403 1145.488, 822.035 1145.276, 836.614 1143.269 C 910.124 1133.148, 975.260 1109.119, 1034.421 1070.296 C 1062.730 1051.719, 1082.830 1035.251, 1108.572 1009.545 C 1128.068 990.077, 1137.847 978.934, 1152.505 959.484 C 1225.604 862.488, 1257.710 740.533, 1242.405 618 C 1225.867 485.600, 1151.647 364.942, 1040.500 289.766 C 985.051 252.263, 922.741 227.158, 857.500 216.036 C 828.294 211.057, 813.543 209.986, 776.241 210.135 C 757.683 210.209, 738.450 210.648, 733.500 211.111 M 894 396.595 C 861.277 398.765, 832.073 405.022, 806.282 415.387 C 728.313 446.722, 670.302 508.515, 644.706 587.500 C 625.223 647.620, 625.564 718.070, 645.623 776.904 C 669.034 845.572, 715.843 899.270, 779.500 930.484 C 816.043 948.403, 846.409 956.288, 889.500 959.048 C 935.206 961.976, 979.186 954.785, 1018.631 937.933 C 1033.973 931.379, 1059 918.743, 1059 917.551 C 1059 916.361, 1045.114 893, 1044.407 893 C 1044.132 893, 1040.405 895.020, 1036.124 897.489 C 1009.772 912.689, 975.077 924.937, 944.964 929.670 C 927.576 932.403, 886.590 932.141, 867.500 929.175 C 797.695 918.327, 741.172 882.941, 703.468 826.482 C 657.277 757.313, 647.140 662.931, 677.639 586 C 711.731 500.008, 785.521 440.081, 874 426.529 C 888.863 424.253, 915.927 423.489, 931 424.921 C 966.616 428.305, 1003.222 440.122, 1035.203 458.559 C 1039.440 461.002, 1043.490 462.980, 1044.203 462.956 C 1045.604 462.909, 1057.007 440.558, 1057.003 437.869 C 1057.001 436.775, 1052.134 433.751, 1042.250 428.701 C 1009.815 412.129, 979.167 402.595, 945.500 398.603 C 932.281 397.036, 903.987 395.933, 894 396.595 M 132.335 404.431 C 132.637 405.217, 154.802 443.130, 181.591 488.681 C 208.381 534.231, 254.307 612.331, 283.650 662.236 L 337 752.973 337 852.986 L 337 953 351.500 953 L 366 953 366 853.418 L 366 753.835 468.500 578.844 C 524.875 482.599, 571 403.651, 571 403.403 C 571 403.155, 563.264 403.076, 553.810 403.226 L 536.619 403.500 446.060 559.093 C 396.252 644.670, 354.824 715.689, 353.997 716.914 C 352.557 719.048, 348.591 712.502, 259.548 561.071 L 166.601 403 149.194 403 C 134.507 403, 131.872 403.224, 132.335 404.431 M 0.459 677.500 C 0.460 701.700, 0.590 711.457, 0.749 699.182 C 0.908 686.907, 0.908 667.107, 0.749 655.182 C 0.589 643.257, 0.459 653.300, 0.459 677.500" stroke="none" fill="#ffffff" fill-rule="evenodd"/><path d="M 750 210.704 C 657.691 216.312, 567.797 249.571, 495 305.047 C 482.411 314.641, 465.694 328.680, 465.167 330.102 C 464.977 330.613, 472.971 331, 483.713 331 L 502.592 331 510.365 325.041 C 573.545 276.597, 650.821 246.299, 734 237.357 C 755.458 235.050, 799.813 235.081, 821.500 237.419 C 896.107 245.460, 961.406 268.893, 1022.500 309.551 C 1124.689 377.557, 1193.059 482.709, 1213.952 604 C 1219.260 634.816, 1221.398 678.558, 1219.084 709 C 1213.080 787.986, 1188.461 859.653, 1145.056 924.500 C 1087.198 1010.940, 999.665 1074.701, 899.300 1103.511 C 766.682 1141.580, 621.983 1114.903, 512.048 1032.118 L 502.595 1025 483.714 1025 C 473.330 1025, 464.983 1025.393, 465.167 1025.874 C 465.775 1027.470, 483.310 1042.063, 496.500 1051.950 C 565.624 1103.769, 642.723 1133.919, 731 1143.655 C 752.758 1146.054, 802.386 1146.030, 824.500 1143.609 C 952.025 1129.646, 1063.862 1068.706, 1142.819 970.158 C 1195.476 904.436, 1229.382 825.895, 1240.883 743 C 1244.405 717.613, 1245.277 700.755, 1244.727 668.702 C 1244.042 628.771, 1240.677 601.772, 1231.973 566.352 C 1208.265 469.884, 1154.111 383.024, 1078 319.386 C 992.165 247.618, 884.962 209.087, 774.170 210.185 C 763.902 210.287, 753.025 210.520, 750 210.704 M 886.091 398.007 C 779.978 406.904, 689.523 474.157, 651.232 572.624 C 621.336 649.503, 625.466 740.929, 662.091 813.053 C 674.933 838.342, 689.845 858.824, 710.500 879.544 C 765.809 935.029, 842.953 963.158, 925.839 958.064 C 963.359 955.758, 992.426 948.638, 1026 933.530 C 1035.579 929.220, 1053.629 920.213, 1056.799 918.162 C 1057.783 917.525, 1056.477 914.612, 1051.418 906.161 C 1047.745 900.022, 1044.332 895, 1043.835 895 C 1043.337 895, 1039.284 897.069, 1034.826 899.599 C 1008.841 914.343, 975.339 925.931, 945 930.667 C 928.924 933.176, 887.624 933.158, 870.500 930.634 C 839.126 926.008, 816.518 918.947, 790.137 905.532 C 695.311 857.314, 644.034 747.283, 663.470 633.727 C 674.134 571.418, 707.307 515.705, 757.500 475.806 C 784.963 453.975, 825.266 434.977, 858.720 428.092 C 918.058 415.880, 978.912 425.622, 1033.199 456.022 C 1039.232 459.401, 1044.304 462.015, 1044.470 461.833 C 1046.123 460.010, 1056.008 438.464, 1055.636 437.495 C 1055.366 436.789, 1047.349 432.369, 1037.822 427.672 C 1006.796 412.376, 977.836 403.503, 945.929 399.518 C 930.631 397.607, 900.070 396.835, 886.091 398.007 M 134.225 404.752 C 134.485 405.745, 180.440 484.344, 236.348 579.417 L 338 752.277 338 852.138 L 338 952 351.500 952 L 365 952 365 852.831 L 365 753.662 368.148 748.081 C 369.879 745.011, 415.779 666.561, 470.148 573.747 C 524.516 480.932, 569 404.545, 569 403.997 C 569 403.379, 563.322 403, 554.071 403 C 542.568 403, 538.840 403.321, 537.821 404.401 C 537.095 405.171, 495.325 476.701, 445 563.356 C 394.675 650.011, 353.159 720.817, 352.743 720.703 C 352.327 720.589, 310.027 649.171, 258.743 561.998 L 165.500 403.500 149.627 403.224 C 134.745 402.965, 133.783 403.061, 134.225 404.752" stroke="none" fill="#a537dc" fill-rule="evenodd"/><path d="M 802.776 210.733 C 805.128 210.945, 808.728 210.942, 810.776 210.727 C 812.824 210.512, 810.900 210.339, 806.500 210.343 C 802.100 210.346, 800.424 210.522, 802.776 210.733 M 689 217.259 C 685.975 217.821, 683.955 218.444, 684.512 218.644 C 685.068 218.844, 688.668 218.383, 692.512 217.621 C 696.355 216.858, 698.375 216.234, 697 216.236 C 695.625 216.237, 692.025 216.697, 689 217.259 M 878.985 221.078 C 885.851 222.691, 891.880 223.873, 892.381 223.706 C 893.479 223.340, 870.142 217.935, 868 218.059 C 867.175 218.107, 872.118 219.466, 878.985 221.078 M 661 223.636 C 600.209 239.347, 543.649 266.648, 494.175 304.163 C 478.711 315.888, 463.117 329.210, 463.053 330.750 C 463.012 331.710, 467.656 332, 483.086 332 L 503.173 332 512.915 324.661 C 644.029 225.895, 821.751 208.718, 969.500 280.532 C 1125.626 356.417, 1223.354 516.434, 1218.660 688.500 C 1217.379 735.478, 1210.595 774.311, 1196.039 818 C 1165.179 910.620, 1103.404 991.212, 1021.489 1045.718 C 930.091 1106.534, 820.072 1130.841, 710.500 1114.427 C 640.096 1103.881, 570.546 1074.554, 512.343 1030.872 L 503.187 1024 483.093 1024 C 467.660 1024, 463.011 1024.290, 463.047 1025.250 C 463.073 1025.938, 467.627 1030.325, 473.167 1035 C 543.661 1094.483, 627.235 1131.410, 717.631 1143.017 C 726.126 1144.108, 734.972 1144.950, 737.288 1144.889 C 739.605 1144.828, 735.650 1144.145, 728.500 1143.371 C 643.583 1134.187, 564.775 1103.132, 496.500 1051.950 C 483.310 1042.063, 465.775 1027.470, 465.167 1025.874 C 464.983 1025.393, 473.330 1025, 483.714 1025 L 502.595 1025 512.048 1032.118 C 612.707 1107.919, 741.896 1136.853, 866.500 1111.505 C 1039.634 1076.284, 1176.287 939.367, 1211.339 766 C 1221.842 714.049, 1222.790 655.307, 1213.952 604 C 1193.059 482.709, 1124.689 377.557, 1022.500 309.551 C 961.406 268.893, 896.107 245.460, 821.500 237.419 C 799.813 235.081, 755.458 235.050, 734 237.357 C 650.821 246.299, 573.545 276.597, 510.365 325.041 L 502.592 331 483.713 331 C 472.971 331, 464.977 330.613, 465.167 330.102 C 465.694 328.680, 482.411 314.641, 495 305.047 C 544.054 267.665, 600.356 240.466, 661.661 224.535 C 670.923 222.128, 677.600 220.156, 676.500 220.153 C 675.400 220.150, 668.425 221.718, 661 223.636 M 898.500 225.646 C 978.362 248.616, 1040.337 283.385, 1099.233 338.261 C 1154.427 389.688, 1200.049 462.057, 1223.088 534.727 C 1224.348 538.702, 1225.565 541.768, 1225.793 541.540 C 1226.462 540.871, 1220.269 522.784, 1213.282 505 C 1175.546 408.947, 1105.231 326.851, 1015 273.497 C 990.385 258.942, 956.391 243.435, 928 233.809 C 915.041 229.416, 896.206 223.947, 894.577 224.104 C 893.984 224.161, 895.750 224.855, 898.500 225.646 M 903.750 396.737 C 906.638 396.939, 911.362 396.939, 914.250 396.737 C 917.138 396.535, 914.775 396.370, 909 396.370 C 903.225 396.370, 900.862 396.535, 903.750 396.737 M 885.250 397.728 C 887.313 397.944, 890.688 397.944, 892.750 397.728 C 894.813 397.513, 893.125 397.336, 889 397.336 C 884.875 397.336, 883.188 397.513, 885.250 397.728 M 925.250 397.728 C 927.313 397.944, 930.688 397.944, 932.750 397.728 C 934.813 397.513, 933.125 397.336, 929 397.336 C 924.875 397.336, 923.188 397.513, 925.250 397.728 M 859.500 400.481 C 851.524 402.159, 855.514 402.196, 865 400.532 C 869.219 399.791, 870.969 399.216, 869 399.217 C 867.075 399.217, 862.800 399.786, 859.500 400.481 M 967 402.980 C 993.312 408.562, 1012.771 415.350, 1037.822 427.684 C 1047.349 432.374, 1055.366 436.789, 1055.636 437.495 C 1056.008 438.464, 1046.123 460.010, 1044.470 461.833 C 1044.304 462.015, 1039.232 459.401, 1033.199 456.022 C 978.912 425.622, 918.058 415.880, 858.720 428.092 C 824.886 435.055, 783.900 454.543, 756 476.932 C 718.875 506.726, 689.908 547.564, 674.027 592.500 C 670.315 603.004, 663.969 627.091, 664.070 630.293 C 664.108 631.507, 665.210 627.874, 666.519 622.219 C 671.760 599.568, 678.551 581.351, 689.969 559.313 C 726.891 488.042, 795.477 438.556, 874 426.529 C 888.863 424.253, 915.927 423.489, 931 424.921 C 966.616 428.305, 1003.222 440.122, 1035.203 458.559 C 1039.440 461.002, 1043.490 462.980, 1044.203 462.956 C 1045.604 462.909, 1057.007 440.558, 1057.003 437.869 C 1056.998 434.869, 1024.646 419.277, 1003 411.843 C 987.055 406.366, 961.214 399.919, 955.767 400.058 C 954.520 400.090, 959.575 401.405, 967 402.980 M 845.500 403.110 C 778.543 418.334, 716.440 461.077, 678.164 518.284 C 633.453 585.107, 618.959 672.787, 639.115 754.500 C 658.378 832.589, 708.825 895.829, 779.500 930.484 C 816.043 948.403, 846.409 956.288, 889.500 959.048 C 935.206 961.976, 979.186 954.785, 1018.631 937.933 C 1033.973 931.379, 1059 918.743, 1059 917.551 C 1059 916.361, 1045.114 893, 1044.407 893 C 1044.132 893, 1040.405 895.020, 1036.124 897.489 C 1009.772 912.689, 975.077 924.937, 944.964 929.670 C 927.576 932.403, 886.590 932.141, 867.500 929.175 C 797.695 918.327, 741.172 882.941, 703.468 826.482 C 686.043 800.388, 672.146 767.439, 666.455 738.725 C 665.499 733.899, 664.507 730.160, 664.251 730.416 C 663.294 731.372, 668.342 751.997, 672.959 766 C 696.464 837.287, 746.314 890.344, 814.265 916.395 C 844.898 928.140, 869.726 932.388, 908 932.432 C 935.219 932.464, 945.873 931.385, 966.500 926.506 C 986.691 921.731, 1016.530 909.980, 1034.826 899.599 C 1039.284 897.069, 1043.337 895, 1043.835 895 C 1044.332 895, 1047.745 900.022, 1051.418 906.161 C 1056.477 914.612, 1057.783 917.525, 1056.799 918.162 C 1049.337 922.990, 1020.670 936.304, 1005 942.219 C 958.443 959.792, 896.843 963.473, 843.178 951.887 C 773.880 936.927, 711.919 893.940, 674.434 834.820 C 627.018 760.035, 617.997 658.091, 651.232 572.624 C 683.526 489.578, 753.583 427.704, 840.500 405.463 C 852.096 402.496, 855.736 400.783, 845.500 403.110 M 132.335 404.431 C 132.637 405.217, 154.802 443.130, 181.591 488.681 C 208.381 534.231, 254.307 612.331, 283.650 662.236 L 337 752.973 337 852.986 L 337 953 351.500 953 L 366 953 366 853.418 L 366 753.835 468.500 578.844 C 524.875 482.599, 571 403.661, 571 403.427 C 571 403.192, 570.550 403, 570 403 C 569.450 403, 569 403.448, 569 403.997 C 569 404.545, 524.516 480.932, 470.148 573.747 C 415.779 666.561, 369.879 745.011, 368.148 748.081 L 365 753.662 365 852.831 L 365 952 351.500 952 L 338 952 338 852.139 L 338 752.277 236.865 580.389 C 181.241 485.850, 135.242 407.262, 134.646 405.750 C 134.050 404.238, 133.162 403, 132.674 403 C 132.186 403, 132.033 403.644, 132.335 404.431 M 258.610 561.748 C 309.967 649.059, 352.328 720.589, 352.744 720.703 C 353.160 720.817, 394.675 650.011, 445 563.356 C 495.325 476.701, 537.167 405.099, 537.982 404.240 C 539.272 402.881, 539.274 402.742, 537.997 403.168 C 537.191 403.436, 495.799 473.638, 446.015 559.171 C 396.232 644.705, 354.824 715.689, 353.997 716.914 C 352.557 719.048, 348.591 712.502, 259.548 561.071 C 208.427 474.132, 166.293 403, 165.917 403 C 165.540 403, 207.252 474.437, 258.610 561.748 M 1245.439 678 C 1245.439 693.125, 1245.578 699.313, 1245.748 691.750 C 1245.917 684.188, 1245.917 671.813, 1245.748 664.250 C 1245.578 656.688, 1245.439 662.875, 1245.439 678 M 660.336 662 C 660.336 666.125, 660.513 667.813, 660.728 665.750 C 660.944 663.688, 660.944 660.313, 660.728 658.250 C 660.513 656.188, 660.336 657.875, 660.336 662 M 659.349 680 C 659.349 684.675, 659.522 686.587, 659.732 684.250 C 659.943 681.913, 659.943 678.087, 659.732 675.750 C 659.522 673.413, 659.349 675.325, 659.349 680 M 660.589 703 C 660.939 712.697, 662.981 729.353, 663.728 728.605 C 663.955 728.378, 663.435 722.411, 662.572 715.346 C 661.708 708.281, 660.832 700.475, 660.624 698 C 660.416 695.525, 660.400 697.775, 660.589 703 M 1228.692 802.192 C 1227.186 807.744, 1226.130 812.463, 1226.345 812.679 C 1226.561 812.895, 1227.981 808.539, 1229.500 803 C 1231.019 797.461, 1232.075 792.742, 1231.847 792.513 C 1231.618 792.285, 1230.199 796.641, 1228.692 802.192 M 1222.082 824.285 C 1211.210 857.727, 1191.320 899.645, 1172.206 929.397 C 1141.497 977.197, 1101.862 1019.719, 1056.500 1053.530 C 989.867 1103.196, 909.782 1134.484, 826.500 1143.388 C 819.350 1144.152, 815.395 1144.828, 817.712 1144.889 C 823.704 1145.047, 850.446 1141.492, 866.157 1138.449 C 936.101 1124.901, 1002.398 1095.604, 1058.421 1053.488 C 1077.705 1038.991, 1088.967 1029.123, 1108.572 1009.545 C 1147.558 970.615, 1175.475 931.700, 1198.993 883.500 C 1209.535 861.896, 1227.353 816.020, 1225.805 814.471 C 1225.584 814.250, 1223.908 818.666, 1222.082 824.285 M 746.280 1145.736 C 748.909 1145.943, 752.959 1145.940, 755.280 1145.731 C 757.601 1145.521, 755.450 1145.352, 750.500 1145.355 C 745.550 1145.358, 743.651 1145.530, 746.280 1145.736 M 800.280 1145.736 C 802.909 1145.943, 806.959 1145.940, 809.280 1145.731 C 811.601 1145.521, 809.450 1145.352, 804.500 1145.355 C 799.550 1145.358, 797.651 1145.530, 800.280 1145.736" stroke="none" fill="#fbfbfb" fill-rule="evenodd"/></svg>