<svg xmlns="http://www.w3.org/2000/svg" width="2000" height="1500" viewBox="0 0 2000 1500" version="1.1"><path d="M 969.500 303.911 C 942.588 314.123, 924.806 322.456, 913.097 330.341 C 908.475 333.453, 904.624 336, 904.538 336 C 904.452 336, 904.730 332.749, 905.154 328.777 C 906.311 317.951, 904.928 314.936, 899.717 316.918 C 898.470 317.392, 892.324 322.579, 886.059 328.445 C 879.793 334.311, 872.720 340.252, 870.341 341.646 C 866.307 344.010, 865.454 344.134, 857.686 343.487 C 843.280 342.287, 831.956 346.488, 820.297 357.359 C 813.850 363.369, 808.140 371.713, 806.090 378.119 C 805.025 381.445, 804.550 381.790, 800.216 382.384 C 797.622 382.740, 790.775 382.521, 785 381.899 C 773.029 380.610, 764.637 381.092, 760.412 383.310 C 754.842 386.236, 730.331 408.575, 702.861 435.762 C 672.934 465.380, 674.023 463.947, 667.556 482.209 C 663.508 493.643, 660.243 497.914, 642.104 515.500 C 598.053 558.210, 594.386 562.431, 584.780 581.485 C 574.709 601.461, 569.304 622.625, 562.045 670.500 C 559.793 685.350, 557.314 700.895, 556.535 705.045 L 555.120 712.590 563.982 730.298 C 578.432 759.169, 587.119 783.443, 591.937 808.413 C 594.513 821.762, 594.508 823.492, 591.884 826.116 C 590.212 827.788, 588.953 828.123, 585.884 827.711 L 582 827.190 582.008 837.845 C 582.022 858.598, 581.951 858.383, 609 919.500 C 628.330 963.177, 639.704 991.055, 645.617 1009.250 C 648.650 1018.585, 649.812 1021, 651.267 1021 C 654.113 1021, 658.502 1023.620, 661.372 1027.031 C 664.064 1030.229, 664.893 1032.760, 669.387 1051.500 C 674.635 1073.383, 686.881 1092.786, 701.354 1102.148 C 712.408 1109.297, 716.285 1110.249, 737.500 1111.021 C 759.764 1111.830, 763.121 1112.769, 774.360 1121.330 C 788.092 1131.788, 801.661 1136.804, 818.069 1137.488 L 827.639 1137.886 852.069 1150.551 C 878.362 1164.181, 887.278 1169.154, 896.195 1175.163 C 902.665 1179.522, 906.334 1179.974, 909.686 1176.826 L 912 1174.651 912 1181.826 C 912 1185.772, 912.337 1188.991, 912.750 1188.980 C 913.163 1188.969, 920.700 1188.101, 929.500 1187.050 C 977.778 1181.286, 1014.692 1182.048, 1042.451 1189.382 C 1049.373 1191.210, 1051.130 1191.344, 1055 1190.334 C 1067.365 1187.110, 1079.584 1189.534, 1096.936 1198.653 C 1108.722 1204.848, 1115.477 1206.381, 1118.346 1203.512 C 1119.951 1201.907, 1119.946 1200.757, 1118.316 1196.407 C 1117.636 1194.591, 1128.780 1190.339, 1141.424 1187.591 C 1159.142 1183.741, 1159.327 1183.778, 1165.923 1192.515 C 1169.982 1197.890, 1175.094 1201.988, 1177.750 1201.996 C 1178.647 1201.999, 1179 1199.725, 1179 1193.950 C 1179 1179.972, 1182.355 1177.194, 1197.803 1178.382 L 1206.262 1179.032 1205.644 1173.266 C 1204.518 1162.760, 1205.140 1161.685, 1223.381 1142.609 C 1232.500 1133.073, 1242.490 1123.528, 1245.581 1121.400 L 1251.201 1117.529 1253.203 1120.015 C 1256.448 1124.042, 1265.064 1133, 1265.693 1133 C 1266.898 1133, 1264.948 1123.819, 1262.879 1119.747 C 1261.692 1117.411, 1258.533 1113.101, 1255.860 1110.169 C 1253.187 1107.238, 1251 1104.480, 1251 1104.042 C 1251 1102.541, 1253.507 1101.265, 1261.855 1098.516 C 1271.698 1095.276, 1277.962 1095.413, 1282.969 1098.978 L 1286.193 1101.273 1284.536 1098.069 C 1280.546 1090.354, 1284.761 1086.897, 1299.286 1085.969 C 1306.506 1085.508, 1310.390 1084.790, 1312.249 1083.573 C 1315.626 1081.360, 1318.638 1074.990, 1319.515 1068.206 C 1320.144 1063.342, 1321.030 1061.917, 1330.394 1050.706 C 1355.284 1020.904, 1369.611 998.903, 1386.529 964.500 C 1394.583 948.123, 1409.450 913, 1408.329 913 C 1408.029 913, 1404.923 915.276, 1401.428 918.058 C 1392.920 924.827, 1383.991 934.711, 1377.293 944.772 C 1374.264 949.322, 1370.883 953.528, 1369.778 954.119 C 1367.835 955.159, 1364.087 954.957, 1361 953.646 C 1359.838 953.152, 1358.892 954.867, 1356.802 961.254 L 1354.104 969.500 1354.302 963.248 C 1354.411 959.810, 1354.275 957.004, 1354 957.014 C 1353.725 957.024, 1348.325 961.121, 1342 966.118 C 1304.060 996.093, 1250.260 1035.356, 1212.264 1060.798 C 1184.801 1079.188, 1181.545 1081, 1175.963 1081 C 1171.786 1081, 1167.940 1078.330, 1165.313 1073.606 C 1164.338 1071.853, 1163.797 1072.096, 1158.078 1076.856 C 1154.397 1079.919, 1150.920 1082, 1149.483 1082 C 1146.463 1082, 1144.601 1078.747, 1145.382 1074.838 L 1145.966 1071.920 1137.802 1072.210 L 1129.637 1072.500 1127.179 1077.436 C 1124.773 1082.266, 1124.686 1082.328, 1123.110 1080.305 C 1122.225 1079.168, 1120.990 1077.396, 1120.367 1076.369 C 1118.734 1073.674, 1118.073 1074.848, 1116.562 1083.130 C 1115.822 1087.183, 1115.168 1089.543, 1115.108 1088.372 C 1114.975 1085.758, 1112.756 1083.773, 1110.803 1084.522 C 1110.005 1084.828, 1108.262 1086.804, 1106.930 1088.912 L 1104.508 1092.745 1100.367 1086.623 C 1096.038 1080.221, 1088.739 1072.561, 1090.836 1076.620 C 1092.608 1080.051, 1093.942 1087.282, 1093.084 1088.814 C 1092.440 1089.964, 1091.907 1089.816, 1090.235 1088.022 L 1088.179 1085.815 1087.473 1092.408 C 1087.085 1096.033, 1086.358 1099, 1085.858 1099 C 1085.358 1099, 1082.085 1101.665, 1078.583 1104.922 C 1073.315 1109.823, 1071.465 1110.932, 1067.859 1111.349 C 1043.525 1114.163, 1034.871 1115.434, 1024.711 1117.686 L 1012.866 1120.312 997.163 1116.691 C 969.218 1110.248, 937.245 1105.310, 908.500 1102.996 C 878.349 1100.569, 859.392 1094.901, 835.734 1081.238 C 827.691 1076.594, 826.279 1075.434, 827.734 1074.667 C 831.543 1072.660, 836.008 1067.472, 836.589 1064.379 C 837.450 1059.786, 836.256 1058.404, 833.954 1061.331 C 831.651 1064.259, 828.597 1065.546, 819.503 1067.419 L 812.505 1068.859 799.503 1056.151 C 792.351 1049.161, 773.675 1031.543, 758 1017 C 710.463 972.896, 674.967 937.028, 662.640 920.639 C 657.997 914.466, 650.999 900.142, 644.007 882.500 C 637.539 866.182, 630.932 851, 630.299 851 C 630.033 851, 628.671 851.900, 627.273 853 C 623.844 855.697, 622.624 855.531, 619.616 851.955 C 615.789 847.407, 614.241 841.436, 616.058 838.236 C 618.284 834.318, 620.440 833.350, 623.975 834.684 C 626.338 835.576, 627 835.553, 627 834.575 C 627 833.887, 624.955 819.189, 622.456 801.912 C 619.578 782.022, 618.129 768.968, 618.506 766.324 C 618.833 764.028, 621.032 758.178, 623.392 753.324 C 625.753 748.471, 628.197 742.925, 628.823 741 C 629.449 739.075, 632.680 712.758, 636.002 682.518 C 639.325 652.278, 643.175 621.947, 644.558 615.116 C 648.144 597.405, 654.930 577.835, 663.496 560.500 C 676.525 534.134, 691.248 514.145, 717.500 487.183 C 738.221 465.901, 775.937 431.015, 784.344 425.355 C 791.893 420.272, 849.740 386.229, 863.500 378.771 C 886.347 366.389, 907.869 357.680, 928.560 352.446 C 950.109 346.994, 959.786 345.868, 989.500 345.356 C 1014.746 344.921, 1016.792 344.748, 1021 342.695 C 1027.927 339.316, 1030 334.368, 1030 321.209 L 1030 310.841 1027 311.500 C 1022.039 312.590, 1018.469 311.160, 1010.291 304.809 C 1003.477 299.517, 995.189 294.814, 993.167 295.092 C 992.800 295.142, 982.150 299.111, 969.500 303.911 M 1127.174 324.931 L 1116.848 325.500 1113.074 329.551 C 1110.998 331.779, 1109.098 334.206, 1108.852 334.944 C 1108.480 336.060, 1107.990 336.051, 1105.952 334.893 C 1104.169 333.880, 1100.149 333.548, 1091.221 333.675 C 1080.849 333.823, 1078.237 334.191, 1074.405 336.046 C 1066.254 339.992, 1062.536 348.610, 1065.042 357.748 C 1066.050 361.421, 1067.840 363.978, 1072.923 369.009 C 1084.757 380.722, 1102.526 387.946, 1124.819 390.108 C 1138.171 391.403, 1138.239 391.433, 1165 407.810 C 1185.637 420.440, 1213.047 439.033, 1249.500 465.129 C 1304.919 504.802, 1299.839 501.507, 1305.500 501.445 C 1309.242 501.404, 1312.696 500.335, 1319.230 497.195 C 1324.031 494.888, 1328.083 493, 1328.234 493 C 1328.385 493, 1328.547 497.387, 1328.593 502.750 C 1328.693 514.208, 1330.719 522.391, 1338.104 541.157 C 1343.688 555.348, 1347.481 560.536, 1357 567 C 1364.692 572.223, 1370.473 578.999, 1373.087 585.853 C 1375.931 593.311, 1376.136 605.754, 1373.582 615.880 L 1371.721 623.260 1376.459 632.380 C 1385.761 650.284, 1397.934 665.875, 1410.264 675.674 C 1412.520 677.467, 1413 678.641, 1413 682.359 C 1413 693.296, 1418.153 697.259, 1424.099 690.894 C 1425.694 689.186, 1427 688.191, 1427 688.682 C 1427 689.174, 1426.316 694.959, 1425.480 701.538 C 1423.145 719.914, 1422.528 738.341, 1423.964 746.815 C 1424.645 750.839, 1425.336 753.989, 1425.499 753.815 C 1425.661 753.642, 1426.548 746.075, 1427.468 737 C 1430.264 709.432, 1434.635 687.055, 1440.799 668.750 C 1442.419 663.937, 1443.413 660, 1443.007 660 C 1441.288 660, 1436.810 664.467, 1434.391 668.596 C 1431.973 672.722, 1429.424 675, 1427.225 675 C 1426.726 675, 1426.009 665.888, 1425.632 654.750 C 1424.899 633.092, 1424.005 623.505, 1418.847 582 L 1415.554 555.500 1370.115 482.685 C 1321.087 404.120, 1318.591 400.615, 1300.327 384.694 C 1276.131 363.601, 1249.276 347.964, 1217.639 336.549 C 1185.795 325.058, 1167.494 322.708, 1127.174 324.931 M 1154.675 556.056 C 1111.257 561.102, 1080.016 579.833, 1060.393 612.586 C 1041.134 644.730, 1031.684 685.229, 1030.310 741.500 C 1028.488 816.175, 1041.594 870.660, 1069.684 905.188 C 1079.920 917.770, 1097.493 930.062, 1113.756 936.017 C 1150.383 949.427, 1204.248 947.641, 1254.500 931.349 C 1260.550 929.388, 1265.641 927.653, 1265.813 927.495 C 1266.320 927.029, 1250.826 843.572, 1250.079 842.749 C 1249.704 842.335, 1242.670 843.532, 1234.449 845.407 C 1209.108 851.186, 1200.626 852.394, 1185 852.449 C 1171.136 852.498, 1170.253 852.379, 1164.874 849.736 C 1157.443 846.085, 1150.596 838.598, 1146.549 829.697 C 1139.761 814.768, 1137.087 797.343, 1136.316 763 C 1135.088 708.286, 1141.309 676.187, 1155.715 662.908 C 1169.877 649.855, 1187.943 649.904, 1231.908 663.117 C 1241.343 665.952, 1249.264 668.069, 1249.512 667.821 C 1249.887 667.446, 1266 576.512, 1266 574.769 C 1266 573.819, 1249.372 567.171, 1239.132 564.028 C 1227.439 560.439, 1212.819 557.477, 1199.789 556.058 C 1188.827 554.864, 1164.943 554.863, 1154.675 556.056 M 733.249 562.242 C 733.506 562.934, 753.581 621.882, 777.859 693.237 L 822 822.975 822 880.987 L 822 939 873.500 939 L 925 939 925 880.889 L 925 822.779 970 692.345 C 994.750 620.606, 1015 561.702, 1015 561.447 C 1015 561.192, 990.385 561.099, 960.301 561.241 L 905.601 561.500 892.580 622.795 L 879.558 684.090 877.050 683.795 C 874.573 683.504, 874.369 682.723, 860.995 622.500 L 847.448 561.500 790.114 561.242 C 744.379 561.036, 732.875 561.238, 733.249 562.242 M 628.449 879.900 C 630.360 883.694, 632.377 889.613, 632.931 893.052 C 634.057 900.046, 636.197 903.014, 642.408 906.198 L 646.317 908.202 644.220 904.649 C 643.067 902.694, 639.850 895.820, 637.071 889.372 C 632.085 877.804, 628.929 873, 626.313 873 C 625.402 873, 626.083 875.201, 628.449 879.900 M 613.616 875.527 C 611.932 877.210, 611.430 880.589, 612.778 881.167 C 613.206 881.350, 615.681 884.129, 618.278 887.342 C 620.875 890.555, 622.960 892.580, 622.910 891.842 C 622.709 888.822, 617.418 874.625, 616.366 874.281 C 615.742 874.077, 614.505 874.638, 613.616 875.527" stroke="none" fill="#f4e3e3" fill-rule="evenodd"/><path d="M 0 750 L 0 1500.001 1000.250 1499.750 L 2000.500 1499.500 2000.751 749.750 L 2001.001 0 1000.501 0 L 0 0 0 750 M 0.497 750.500 C 0.497 1163, 0.611 1331.600, 0.750 1125.168 C 0.889 918.735, 0.889 581.235, 0.750 375.168 C 0.611 169.100, 0.497 338, 0.497 750.500 M 969.500 303.911 C 942.588 314.123, 924.806 322.456, 913.097 330.341 C 908.475 333.453, 904.624 336, 904.538 336 C 904.452 336, 904.730 332.749, 905.154 328.777 C 906.311 317.951, 904.928 314.936, 899.717 316.918 C 898.470 317.392, 892.324 322.579, 886.059 328.445 C 879.793 334.311, 872.720 340.252, 870.341 341.646 C 866.307 344.010, 865.454 344.134, 857.686 343.487 C 843.280 342.287, 831.956 346.488, 820.297 357.359 C 813.850 363.369, 808.140 371.713, 806.090 378.119 C 805.025 381.445, 804.550 381.790, 800.216 382.384 C 797.622 382.740, 790.775 382.521, 785 381.899 C 773.029 380.610, 764.637 381.092, 760.412 383.310 C 754.842 386.236, 730.331 408.575, 702.861 435.762 C 672.934 465.380, 674.023 463.947, 667.556 482.209 C 663.508 493.643, 660.243 497.914, 642.104 515.500 C 598.053 558.210, 594.386 562.431, 584.780 581.485 C 574.709 601.461, 569.304 622.625, 562.045 670.500 C 559.793 685.350, 557.314 700.895, 556.535 705.045 L 555.120 712.590 563.982 730.298 C 578.432 759.169, 587.119 783.443, 591.937 808.413 C 594.513 821.762, 594.508 823.492, 591.884 826.116 C 590.212 827.788, 588.953 828.123, 585.884 827.711 L 582 827.190 582.008 837.845 C 582.022 858.598, 581.951 858.383, 609 919.500 C 628.330 963.177, 639.704 991.055, 645.617 1009.250 C 648.650 1018.585, 649.812 1021, 651.267 1021 C 654.113 1021, 658.502 1023.620, 661.372 1027.031 C 664.064 1030.229, 664.893 1032.760, 669.387 1051.500 C 674.635 1073.383, 686.881 1092.786, 701.354 1102.148 C 712.408 1109.297, 716.285 1110.249, 737.500 1111.021 C 759.764 1111.830, 763.121 1112.769, 774.360 1121.330 C 788.092 1131.788, 801.661 1136.804, 818.069 1137.488 L 827.639 1137.886 852.069 1150.551 C 878.362 1164.181, 887.278 1169.154, 896.195 1175.163 C 902.665 1179.522, 906.334 1179.974, 909.686 1176.826 L 912 1174.651 912 1181.826 C 912 1185.772, 912.337 1188.991, 912.750 1188.980 C 913.163 1188.969, 920.700 1188.101, 929.500 1187.050 C 977.778 1181.286, 1014.692 1182.048, 1042.451 1189.382 C 1049.373 1191.210, 1051.130 1191.344, 1055 1190.334 C 1067.365 1187.110, 1079.584 1189.534, 1096.936 1198.653 C 1108.722 1204.848, 1115.477 1206.381, 1118.346 1203.512 C 1119.951 1201.907, 1119.946 1200.757, 1118.316 1196.407 C 1117.636 1194.591, 1128.780 1190.339, 1141.424 1187.591 C 1159.142 1183.741, 1159.327 1183.778, 1165.923 1192.515 C 1169.982 1197.890, 1175.094 1201.988, 1177.750 1201.996 C 1178.647 1201.999, 1179 1199.725, 1179 1193.950 C 1179 1179.972, 1182.355 1177.194, 1197.803 1178.382 L 1206.262 1179.032 1205.644 1173.266 C 1204.518 1162.760, 1205.140 1161.685, 1223.381 1142.609 C 1232.500 1133.073, 1242.490 1123.528, 1245.581 1121.400 L 1251.201 1117.529 1253.203 1120.015 C 1256.448 1124.042, 1265.064 1133, 1265.693 1133 C 1266.898 1133, 1264.948 1123.819, 1262.879 1119.747 C 1261.692 1117.411, 1258.533 1113.101, 1255.860 1110.169 C 1253.187 1107.238, 1251 1104.480, 1251 1104.042 C 1251 1102.541, 1253.507 1101.265, 1261.855 1098.516 C 1271.698 1095.276, 1277.962 1095.413, 1282.969 1098.978 L 1286.193 1101.273 1284.536 1098.069 C 1280.546 1090.354, 1284.761 1086.897, 1299.286 1085.969 C 1306.506 1085.508, 1310.390 1084.790, 1312.249 1083.573 C 1315.626 1081.360, 1318.638 1074.990, 1319.515 1068.206 C 1320.144 1063.342, 1321.030 1061.917, 1330.394 1050.706 C 1355.284 1020.904, 1369.611 998.903, 1386.529 964.500 C 1394.583 948.123, 1409.450 913, 1408.329 913 C 1408.029 913, 1404.923 915.276, 1401.428 918.058 C 1392.920 924.827, 1383.991 934.711, 1377.293 944.772 C 1374.264 949.322, 1370.883 953.528, 1369.778 954.119 C 1367.835 955.159, 1364.087 954.957, 1361 953.646 C 1359.838 953.152, 1358.892 954.867, 1356.802 961.254 L 1354.104 969.500 1354.302 963.248 C 1354.411 959.810, 1354.275 957.004, 1354 957.014 C 1353.725 957.024, 1348.325 961.121, 1342 966.118 C 1304.060 996.093, 1250.260 1035.356, 1212.264 1060.798 C 1184.801 1079.188, 1181.545 1081, 1175.963 1081 C 1171.786 1081, 1167.940 1078.330, 1165.313 1073.606 C 1164.338 1071.853, 1163.797 1072.096, 1158.078 1076.856 C 1154.397 1079.919, 1150.920 1082, 1149.483 1082 C 1146.463 1082, 1144.601 1078.747, 1145.382 1074.838 L 1145.966 1071.920 1137.802 1072.210 L 1129.637 1072.500 1127.179 1077.436 C 1124.773 1082.266, 1124.686 1082.328, 1123.110 1080.305 C 1122.225 1079.168, 1120.990 1077.396, 1120.367 1076.369 C 1118.734 1073.674, 1118.073 1074.848, 1116.562 1083.130 C 1115.822 1087.183, 1115.168 1089.543, 1115.108 1088.372 C 1114.975 1085.758, 1112.756 1083.773, 1110.803 1084.522 C 1110.005 1084.828, 1108.262 1086.804, 1106.930 1088.912 L 1104.508 1092.745 1100.367 1086.623 C 1096.038 1080.221, 1088.739 1072.561, 1090.836 1076.620 C 1092.608 1080.051, 1093.942 1087.282, 1093.084 1088.814 C 1092.440 1089.964, 1091.907 1089.816, 1090.235 1088.022 L 1088.179 1085.815 1087.473 1092.408 C 1087.085 1096.033, 1086.358 1099, 1085.858 1099 C 1085.358 1099, 1082.085 1101.665, 1078.583 1104.922 C 1073.315 1109.823, 1071.465 1110.932, 1067.859 1111.349 C 1043.525 1114.163, 1034.871 1115.434, 1024.711 1117.686 L 1012.866 1120.312 997.163 1116.691 C 969.218 1110.248, 937.245 1105.310, 908.500 1102.996 C 878.349 1100.569, 859.392 1094.901, 835.734 1081.238 C 827.691 1076.594, 826.279 1075.434, 827.734 1074.667 C 831.543 1072.660, 836.008 1067.472, 836.589 1064.379 C 837.450 1059.786, 836.256 1058.404, 833.954 1061.331 C 831.651 1064.259, 828.597 1065.546, 819.503 1067.419 L 812.505 1068.859 799.503 1056.151 C 792.351 1049.161, 773.675 1031.543, 758 1017 C 710.463 972.896, 674.967 937.028, 662.640 920.639 C 657.997 914.466, 650.999 900.142, 644.007 882.500 C 637.539 866.182, 630.932 851, 630.299 851 C 630.033 851, 628.671 851.900, 627.273 853 C 623.844 855.697, 622.624 855.531, 619.616 851.955 C 615.789 847.407, 614.241 841.436, 616.058 838.236 C 618.284 834.318, 620.440 833.350, 623.975 834.684 C 626.338 835.576, 627 835.553, 627 834.575 C 627 833.887, 624.955 819.189, 622.456 801.912 C 619.578 782.022, 618.129 768.968, 618.506 766.324 C 618.833 764.028, 621.032 758.178, 623.392 753.324 C 625.753 748.471, 628.197 742.925, 628.823 741 C 629.449 739.075, 632.680 712.758, 636.002 682.518 C 639.325 652.278, 643.175 621.947, 644.558 615.116 C 648.144 597.405, 654.930 577.835, 663.496 560.500 C 676.525 534.134, 691.248 514.145, 717.500 487.183 C 738.221 465.901, 775.937 431.015, 784.344 425.355 C 791.893 420.272, 849.740 386.229, 863.500 378.771 C 886.347 366.389, 907.869 357.680, 928.560 352.446 C 950.109 346.994, 959.786 345.868, 989.500 345.356 C 1014.746 344.921, 1016.792 344.748, 1021 342.695 C 1027.927 339.316, 1030 334.368, 1030 321.209 L 1030 310.841 1027 311.500 C 1022.039 312.590, 1018.469 311.160, 1010.291 304.809 C 1003.477 299.517, 995.189 294.814, 993.167 295.092 C 992.800 295.142, 982.150 299.111, 969.500 303.911 M 1127.174 324.931 L 1116.848 325.500 1113.074 329.551 C 1110.998 331.779, 1109.098 334.206, 1108.852 334.944 C 1108.480 336.060, 1107.990 336.051, 1105.952 334.893 C 1104.169 333.880, 1100.149 333.548, 1091.221 333.675 C 1080.849 333.823, 1078.237 334.191, 1074.405 336.046 C 1066.254 339.992, 1062.536 348.610, 1065.042 357.748 C 1066.050 361.421, 1067.840 363.978, 1072.923 369.009 C 1084.757 380.722, 1102.526 387.946, 1124.819 390.108 C 1138.171 391.403, 1138.239 391.433, 1165 407.810 C 1185.637 420.440, 1213.047 439.033, 1249.500 465.129 C 1304.919 504.802, 1299.839 501.507, 1305.500 501.445 C 1309.242 501.404, 1312.696 500.335, 1319.230 497.195 C 1324.031 494.888, 1328.083 493, 1328.234 493 C 1328.385 493, 1328.547 497.387, 1328.593 502.750 C 1328.693 514.208, 1330.719 522.391, 1338.104 541.157 C 1343.688 555.348, 1347.481 560.536, 1357 567 C 1364.692 572.223, 1370.473 578.999, 1373.087 585.853 C 1375.931 593.311, 1376.136 605.754, 1373.582 615.880 L 1371.721 623.260 1376.459 632.380 C 1385.761 650.284, 1397.934 665.875, 1410.264 675.674 C 1412.520 677.467, 1413 678.641, 1413 682.359 C 1413 693.296, 1418.153 697.259, 1424.099 690.894 C 1425.694 689.186, 1427 688.191, 1427 688.682 C 1427 689.174, 1426.316 694.959, 1425.480 701.538 C 1423.145 719.914, 1422.528 738.341, 1423.964 746.815 C 1424.645 750.839, 1425.336 753.989, 1425.499 753.815 C 1425.661 753.642, 1426.548 746.075, 1427.468 737 C 1430.264 709.432, 1434.635 687.055, 1440.799 668.750 C 1442.419 663.937, 1443.413 660, 1443.007 660 C 1441.288 660, 1436.810 664.467, 1434.391 668.596 C 1431.973 672.722, 1429.424 675, 1427.225 675 C 1426.726 675, 1426.009 665.888, 1425.632 654.750 C 1424.899 633.092, 1424.005 623.505, 1418.847 582 L 1415.554 555.500 1370.115 482.685 C 1321.087 404.120, 1318.591 400.615, 1300.327 384.694 C 1276.131 363.601, 1249.276 347.964, 1217.639 336.549 C 1185.795 325.058, 1167.494 322.708, 1127.174 324.931 M 1154.675 556.056 C 1111.257 561.102, 1080.016 579.833, 1060.393 612.586 C 1041.134 644.730, 1031.684 685.229, 1030.310 741.500 C 1028.488 816.175, 1041.594 870.660, 1069.684 905.188 C 1079.920 917.770, 1097.493 930.062, 1113.756 936.017 C 1150.383 949.427, 1204.248 947.641, 1254.500 931.349 C 1260.550 929.388, 1265.641 927.653, 1265.813 927.495 C 1266.320 927.029, 1250.826 843.572, 1250.079 842.749 C 1249.704 842.335, 1242.670 843.532, 1234.449 845.407 C 1209.108 851.186, 1200.626 852.394, 1185 852.449 C 1171.136 852.498, 1170.253 852.379, 1164.874 849.736 C 1157.443 846.085, 1150.596 838.598, 1146.549 829.697 C 1139.761 814.768, 1137.087 797.343, 1136.316 763 C 1135.088 708.286, 1141.309 676.187, 1155.715 662.908 C 1169.877 649.855, 1187.943 649.904, 1231.908 663.117 C 1241.343 665.952, 1249.264 668.069, 1249.512 667.821 C 1249.887 667.446, 1266 576.512, 1266 574.769 C 1266 573.819, 1249.372 567.171, 1239.132 564.028 C 1227.439 560.439, 1212.819 557.477, 1199.789 556.058 C 1188.827 554.864, 1164.943 554.863, 1154.675 556.056 M 733.249 562.242 C 733.506 562.934, 753.581 621.882, 777.859 693.237 L 822 822.975 822 880.987 L 822 939 873.500 939 L 925 939 925 880.889 L 925 822.779 970 692.345 C 994.750 620.606, 1015 561.702, 1015 561.447 C 1015 561.192, 990.385 561.099, 960.301 561.241 L 905.601 561.500 892.580 622.795 L 879.558 684.090 877.050 683.795 C 874.573 683.504, 874.369 682.723, 860.995 622.500 L 847.448 561.500 790.114 561.242 C 744.379 561.036, 732.875 561.238, 733.249 562.242 M 628.449 879.900 C 630.360 883.694, 632.377 889.613, 632.931 893.052 C 634.057 900.046, 636.197 903.014, 642.408 906.198 L 646.317 908.202 644.220 904.649 C 643.067 902.694, 639.850 895.820, 637.071 889.372 C 632.085 877.804, 628.929 873, 626.313 873 C 625.402 873, 626.083 875.201, 628.449 879.900 M 613.616 875.527 C 611.932 877.210, 611.430 880.589, 612.778 881.167 C 613.206 881.350, 615.681 884.129, 618.278 887.342 C 620.875 890.555, 622.960 892.580, 622.910 891.842 C 622.709 888.822, 617.418 874.625, 616.366 874.281 C 615.742 874.077, 614.505 874.638, 613.616 875.527" stroke="none" fill="#ec1404" fill-rule="evenodd"/></svg>